# xmcd
#
# Track frame offsets:
#	150
#	15987
#	31050
#	43407
#	57177
#	67692
#	78657
#	91945
#	113885
#	128822
#
# Disc length: 1884 seconds
# Revision: 6
# Processed by: cddbd v1.5.2PL0 Copyright (c) Steve Scherf et al.
# Submitted via: dBpowerAMP V12.0
#
DISCID=75075a0a
DTITLE=George Strait - Chill Of An Early Fall
DYEAR=1991
DGENRE=Country
TTITLE0=The Chill Of An Early Fall
TTITLE1=I've Convinced Everybody But Me
TTITLE2=If I Know Me
TTITLE3=You Know Me Better Than That
TTITLE4=Anything You Can Spare
TTITLE5=Home In San Antone
TTITLE6=Lovesick Blues
TTITLE7=Milk Cow Blues
TTITLE8=Her Only Bad Habit Is Me
TTITLE9=Is It Already Time
EXTD=
EXTT0=
EXTT1=
EXTT2=
EXTT3=
EXTT4=
EXTT5=
EXTT6=
EXTT7=
EXTT8=
EXTT9=
PLAYORDER=
